<?xml version="1.0" encoding="utf-8"?>
<!-- Generator: Adobe Illustrator 21.1.0, SVG Export Plug-In . SVG Version: 6.00 Build 0)  -->
<svg version="1.1" id="Layer_1" xmlns="http://www.w3.org/2000/svg" xmlns:xlink="http://www.w3.org/1999/xlink" x="0px" y="0px"
	 viewBox="0 0 1440 406" style="enable-background:new 0 0 1440 406;" xml:space="preserve">
<style type="text/css">
	.st0{opacity:0.5455;fill:url(#fill_1_);enable-background:new    ;}
	.st1{opacity:0.5465;fill:none;stroke:#978A8B;stroke-width:2;enable-background:new    ;}
</style>
<title>lines</title>
<desc>Created with Sketch.</desc>
<g id="Page-1">
	<g id="Desktop-HD-Copy" transform="translate(0.000000, -663.000000)">
		
			<g id="lines" transform="translate(719.000000, 866.500000) scale(-1, 1) translate(-719.000000, -866.500000) translate(-2.000000, 664.000000)">
			
				<linearGradient id="fill_1_" gradientUnits="userSpaceOnUse" x1="1025.2129" y1="599.8" x2="1025.2129" y2="597.6537" gradientTransform="matrix(-1442 0 0 -405 1479078 242403)">
				<stop  offset="0" style="stop-color:#966760"/>
				<stop  offset="1" style="stop-color:#978A8B"/>
			</linearGradient>
			<path id="fill" class="st0" d="M0,151c15.3,0,15.3-32.2,30.7-32.2S46,48.9,61.4,48.9S76.7,83.2,92,83.2s15.3-72.4,30.7-72.4
				s15.3,23.9,30.7,23.9s10.3,42.6,25.6,42.6s20.4,89.2,35.8,89.2S230.1,49,245.4,49s15.3,85.1,30.7,85.1s15.3-56.7,30.7-56.7
				s6.4,29.2,21.7,29.2S352.8,1.8,368.2,1.8c15.3,0,15.3,11.1,30.7,11.1s15.3,64.4,30.7,64.4s15.3,59.9,30.7,59.9
				s15.3-68.6,30.7-68.6s15.3-57.8,30.7-57.8c15.3,0,15.3,17.7,30.7,17.7c15.3,0,15.3,26.1,30.7,26.1c15.3,0,15.3,62.7,30.7,62.7
				c15.3,0,15.3,24.9,30.7,24.9c15.3,0,15.3-2.5,30.7-2.5c15.3,0,15.3,89.5,30.7,89.5c15.3,0,15.3-42.3,30.7-42.3
				c15.3,0,15.3,61.2,30.7,61.2c15.3,0,15.3-11.6,30.7-11.6c15.3,0,15.3-61.7,30.7-61.7c15.3,0,15.3-56.3,30.7-56.3
				c15.3,0,15.3-41.2,30.7-41.2c15.3,0,15.3-48.8,30.7-48.8c15.3,0,15.3,20.5,30.7,20.5s15.3-47.3,30.7-47.3
				c15.3,0,15.3,75.8,30.7,75.8s15.3-51.6,30.7-51.6S1058.5,0,1073.8,0c15.3,0,15.3,8.3,30.7,8.3s15.3,26.4,30.7,26.4
				c15.3,0,15.3-11.2,30.7-11.2s15.3,31.1,30.7,31.1s15.3-53,30.7-53c15.3,0,15.3,104.9,30.7,104.9s15.3-80.6,30.7-80.6
				c15.3,0,15.3,57.3,30.7,57.3s15.3-37,30.7-37c15.3,0,15.3,37.2,30.7,37.2s15.3-37.2,30.7-37.2c15.3,0,15.3,105.2,30.7,105.2
				v248.1c0,3.1-2.5,5.5-5.5,5.5H5.5c-3.1,0-5.5-2.5-5.5-5.5V151z"/>
			<path id="line" class="st1" d="M0,151c15.3,0,15.3-33.6,30.7-33.6S46,49,61.4,49S76.7,83.4,92,83.4s15.3-72.6,30.7-72.6
				s15.3,23.8,30.7,23.8s10.3,42.8,25.6,42.8s20.4,89,35.8,89s15.3-120.3,30.7-120.3s15.3,87.9,30.7,87.9s15.3-56.6,30.7-56.6
				s6.4,29.3,21.7,29.3s24.3-105,39.7-105c15.3,0,15.3,11.1,30.7,11.1s15.3,64.6,30.7,64.6s15.3,60,30.7,60s15.3-68.8,30.7-68.8
				s15.3-57.9,30.7-57.9c15.3,0,15.3,17.7,30.7,17.7c15.3,0,15.3,26.2,30.7,26.2c15.3,0,15.3,62.9,30.7,62.9c15.3,0,15.3,25,30.7,25
				c15.3,0,15.3-2.5,30.7-2.5c15.3,0,15.3,88.7,30.7,88.7c15.3,0,15.3-41.8,30.7-41.8c15.3,0,15.3,61.7,30.7,61.7
				c15.3,0,15.3-11.7,30.7-11.7c15.3,0,15.3-61.8,30.7-61.8c15.3,0,15.3-56.5,30.7-56.5c15.3,0,15.3-41.3,30.7-41.3
				c15.3,0,15.3-48.9,30.7-48.9c15.3,0,15.3,20.4,30.7,20.4s15.3-47.3,30.7-47.3c15.3,0,15.3,75.8,30.7,75.8s15.3-52.8,30.7-52.8
				S1058.5,0,1073.8,0c15.3,0,15.3,8.3,30.7,8.3s15.3,26.4,30.7,26.4c15.3,0,15.3-11.2,30.7-11.2s15.3,31.2,30.7,31.2
				s15.3-53,30.7-53c15.3,0,15.3,105,30.7,105s15.3-80.8,30.7-80.8c15.3,0,15.3,57.4,30.7,57.4s15.3-36.7,30.7-36.7
				c15.3,0,15.3,36.5,30.7,36.5s15.3-36.9,30.7-36.9c15.3,0,15.3,104.5,30.7,104.5"/>
		</g>
	</g>
</g>
</svg>
