<?xml version="1.0" encoding="utf-8"?>
<!-- Generator: Adobe Illustrator 21.1.0, SVG Export Plug-In . SVG Version: 6.00 Build 0)  -->
<svg version="1.1" id="Layer_1" xmlns="http://www.w3.org/2000/svg" xmlns:xlink="http://www.w3.org/1999/xlink" x="0px" y="0px"
	 viewBox="0 0 200 200" style="enable-background:new 0 0 200 200;" xml:space="preserve">
<style type="text/css">
	.st0{fill:url(#SVGID_1_);}
</style>
<linearGradient id="SVGID_1_" gradientUnits="userSpaceOnUse" x1="17.482" y1="100.001" x2="182.52" y2="100.001">
	<stop  offset="0" style="stop-color:#333736"/>
	<stop  offset="1" style="stop-color:#966760"/>
</linearGradient>
<path class="st0" d="M157.8,57.3h-49.4L100,72l-8.5-14.7H42.2L17.5,100l24.7,42.7h49.4L100,128l8.5,14.7h49.4l24.7-42.7L157.8,57.3z
	 M173.9,97h-39l-19.5-33.7h39L173.9,97z M45.6,63.3h39L65.1,97h-39L45.6,63.3z M26.1,103h39l19.5,33.7h-39L26.1,103z M89.8,133.7
	L70.3,100l19.5-33.7L96.5,78l-12.7,22l12.7,22L89.8,133.7z M100,84l9.3,16l-9.3,16l-9.3-16L100,84z M116.2,100l-12.7-22l6.8-11.7
	l19.5,33.7l-19.5,33.7l-6.8-11.7L116.2,100z M154.4,136.7h-39l19.5-33.7h39L154.4,136.7z"/>
</svg>
