<svg height='200' width='200'  fill="#000000" xmlns="http://www.w3.org/2000/svg" xmlns:xlink="http://www.w3.org/1999/xlink" viewBox="0 0 106 103" version="1.1" x="0px" y="0px"><title>Fill 138</title><desc>Created with Sketch.</desc><g stroke="none" stroke-width="1" fill="none" fill-rule="evenodd"><g fill="#000000"><path d="M95,32.1405 L95,74.6195 C95,74.9925 94.791,74.9795 94.419,74.9795 L12.247,74.9795 C11.874,74.9795 12,74.9925 12,74.6195 L12,32.1405 C12,31.7675 11.874,30.9795 12.247,30.9795 L42,30.9795 L42,28.9795 L12.247,28.9795 C10.771,28.9795 10,30.6645 10,32.1405 L10,74.6195 C10,76.0945 10.771,76.9795 12.247,76.9795 L94.419,76.9795 C95.894,76.9795 97,76.0945 97,74.6195 L97,32.1405 C97,30.6645 95.894,28.9795 94.419,28.9795 L66,28.9795 L66,30.9795 L94.419,30.9795 C94.791,30.9795 95,31.7675 95,32.1405"></path><path d="M69.873,90.9794 L69.757,88.9794 L72.24,88.9794 L72.51,90.9794 L69.873,90.9794 Z M9.975,88.9794 L12.372,88.9794 L12.123,90.9794 L9.54,90.9794 L9.975,88.9794 Z M12.845,84.9794 L12.603,86.9794 L10.377,86.9794 L10.797,84.9794 L12.845,84.9794 Z M69.538,84.9794 L71.728,84.9794 L71.989,86.9794 L69.65,86.9794 L69.538,84.9794 Z M65.062,86.9794 L64.979,84.9794 L67.534,84.9794 L67.646,86.9794 L65.062,86.9794 Z M65.141,88.9794 L67.753,88.9794 L67.869,90.9794 L65.227,90.9794 L65.141,88.9794 Z M60.527,88.9794 L63.14,88.9794 L63.226,90.9794 L60.582,90.9794 L60.527,88.9794 Z M55.911,88.9794 L58.525,88.9794 L58.58,90.9794 L55.935,90.9794 L55.911,88.9794 Z M51.296,88.9794 L53.911,88.9794 L53.935,90.9794 L51.29,90.9794 L51.296,88.9794 Z M46.682,88.9794 L49.296,88.9794 L49.29,90.9794 L46.645,90.9794 L46.682,88.9794 Z M42.068,88.9794 L44.681,88.9794 L44.644,90.9794 L42.001,90.9794 L42.068,88.9794 Z M37.453,88.9794 L40.066,88.9794 L39.999,90.9794 L37.356,90.9794 L37.453,88.9794 Z M32.839,88.9794 L35.451,88.9794 L35.354,90.9794 L32.711,90.9794 L32.839,88.9794 Z M28.225,88.9794 L30.836,88.9794 L30.708,90.9794 L28.067,90.9794 L28.225,88.9794 Z M23.612,88.9794 L26.22,88.9794 L26.062,90.9794 L23.423,90.9794 L23.612,88.9794 Z M18.999,88.9794 L21.604,88.9794 L21.416,90.9794 L18.78,90.9794 L18.999,88.9794 Z M16.988,88.9794 L16.769,90.9794 L14.136,90.9794 L14.385,88.9794 L16.988,88.9794 Z M17.191,86.9794 L14.616,86.9794 L14.858,84.9794 L17.403,84.9794 L17.191,86.9794 Z M21.779,86.9794 L19.202,86.9794 L19.414,84.9794 L21.962,84.9794 L21.779,86.9794 Z M26.367,86.9794 L23.787,86.9794 L23.969,84.9794 L26.52,84.9794 L26.367,86.9794 Z M30.954,86.9794 L28.372,86.9794 L28.525,84.9794 L31.078,84.9794 L30.954,86.9794 Z M35.541,86.9794 L32.957,86.9794 L33.081,84.9794 L35.635,84.9794 L35.541,86.9794 Z M40.128,86.9794 L37.543,86.9794 L37.638,84.9794 L40.193,84.9794 L40.128,86.9794 Z M44.715,86.9794 L42.13,86.9794 L42.195,84.9794 L44.75,84.9794 L44.715,86.9794 Z M49.302,86.9794 L46.716,86.9794 L46.751,84.9794 L49.308,84.9794 L49.302,86.9794 Z M53.888,86.9794 L51.302,86.9794 L51.308,84.9794 L53.865,84.9794 L53.888,86.9794 Z M60.423,84.9794 L62.978,84.9794 L63.061,86.9794 L60.476,86.9794 L60.423,84.9794 Z M58.474,86.9794 L55.888,86.9794 L55.865,84.9794 L58.421,84.9794 L58.474,86.9794 Z M73.494,82.9794 L9.158,82.9794 L7.099,92.9794 L74.775,92.9794 L73.494,82.9794 Z"></path><path d="M80.6027,84.9794 L80.8437,86.9794 L78.8697,86.9794 L78.6207,84.9794 L80.6027,84.9794 Z M96.3897,87.0964 L94.8657,87.0964 L94.5637,85.3224 L95.9757,85.3224 L96.3897,87.0964 Z M95.5647,90.9794 L95.2067,88.9794 L96.8567,88.9794 L97.3477,90.9794 L95.5647,90.9794 Z M81.3997,90.9794 L79.4447,90.9794 L79.1497,88.9794 L81.1147,88.9794 L81.3997,90.9794 Z M85.0797,88.9794 L85.3657,90.9794 L83.4187,90.9794 L83.1337,88.9794 L85.0797,88.9794 Z M84.8087,86.9794 L82.8627,86.9794 L82.6217,84.9794 L84.5677,84.9794 L84.8087,86.9794 Z M88.8567,86.9794 L86.8277,86.9794 L86.5867,84.9794 L88.6167,84.9794 L88.8567,86.9794 Z M90.8757,86.9794 L90.6357,84.9794 L92.5357,84.9794 L92.8377,86.9794 L90.8757,86.9794 Z M89.4137,90.9794 L87.3837,90.9794 L87.0987,88.9794 L89.1287,88.9794 L89.4137,90.9794 Z M91.1467,88.9794 L93.1787,88.9794 L93.5367,90.9794 L91.4327,90.9794 L91.1467,88.9794 Z M99.8677,92.9794 L97.5637,82.9794 L76.3227,82.9794 L77.7037,92.9794 L99.8677,92.9794 Z"></path><path d="M83,72.9794 L89.963,72.9794 C91.24,72.9794 92,71.9844 92,70.7064 L92,61.9794 L90,61.9794 L90,70.7064 C90,70.8814 90.138,70.9794 89.963,70.9794 L83,70.9794 L83,72.9794 Z"></path><path d="M14,61.9794 L14,70.7064 C14,71.9844 14.768,72.9794 16.045,72.9794 L23,72.9794 L23,70.9794 L16.045,70.9794 C15.87,70.9794 16,70.8814 16,70.7064 L16,61.9794 L14,61.9794 Z"></path><path d="M92,43.9794 L92,35.9264 C92,34.6494 91.24,33.9794 89.963,33.9794 L83,33.9794 L83,35.9794 L89.963,35.9794 C90.138,35.9794 90,35.7514 90,35.9264 L90,43.9794 L92,43.9794 Z"></path><path d="M23,33.9794 L16.045,33.9794 C14.768,33.9794 14,34.6494 14,35.9264 L14,43.9794 L16,43.9794 L16,35.9264 C16,35.7514 15.87,35.9794 16.045,35.9794 L23,35.9794 L23,33.9794 Z"></path><path d="M98.8496,100.9794 L8.1616,100.9794 C5.6626,100.9794 3.5756,99.9794 3.1086,96.9794 L45.9996,96.9794 L45.9996,98.9794 L60.9996,98.9794 L60.9996,96.9794 L103.9026,96.9794 C103.4356,99.9794 101.3476,100.9794 98.8496,100.9794 L98.8496,100.9794 Z M6.6266,81.9794 L99.8686,81.9794 L103.5246,94.9794 L58.9996,94.9794 L58.9996,96.9794 L47.9996,96.9794 L47.9996,94.9794 L3.1276,94.9794 L6.6266,81.9794 Z M105.5946,94.9794 L101.9996,80.3674 L101.9996,28.9994 C101.9996,26.6874 99.7556,24.9794 97.4446,24.9794 L69.9996,24.9794 L69.9996,26.9794 L97.4446,26.9794 C98.6526,26.9794 99.9996,27.7914 99.9996,28.9994 L99.9996,79.9794 L6.9996,79.9794 L6.9996,28.9994 C6.9996,27.7914 8.0126,26.9794 9.2206,26.9794 L36.9996,26.9794 L36.9996,24.9794 L9.2206,24.9794 C6.9096,24.9794 4.9996,26.6874 4.9996,28.9994 L4.9996,79.6754 L1.0626,94.9794 L0.9996,94.9794 L0.9996,95.3524 L0.8606,95.8974 L0.9996,95.9334 L0.9996,96.1494 C0.9996,100.0924 4.2186,102.9794 8.1616,102.9794 L98.8496,102.9794 C102.7916,102.9794 105.9996,100.0924 105.9996,96.1494 L105.9996,94.9794 L105.5946,94.9794 Z"></path><path d="M48.6233,13.9377 L52.1763,28.6327 L43.7813,23.7867 L48.6233,13.9377 Z M47.1183,11.5067 L43.0003,19.8827 L43.0003,9.6707 L47.1183,11.5067 Z M48.4703,9.7087 L44.6703,8.0157 L51.1163,4.2937 L48.4703,9.7087 Z M58.4353,9.7087 L55.7893,4.2947 L62.2353,8.0157 L58.4353,9.7087 Z M58.8553,11.5187 L63.0003,9.6707 L63.0003,20.4237 L58.8553,11.5187 Z M58.2583,14.0417 L62.8633,23.9367 L54.7283,28.6337 L58.2583,14.0417 Z M50.5473,9.9797 L53.4533,4.0327 L56.3593,9.9797 L50.5473,9.9797 Z M56.6903,11.9797 L53.4533,25.3647 L50.2163,11.9797 L56.6903,11.9797 Z M56.0003,53.1887 C56.0003,54.8027 54.6133,56.1147 52.9993,56.1147 C51.3863,56.1147 50.0003,54.8027 50.0003,53.1887 L50.0003,29.9327 L53.0973,31.6787 L56.0003,30.0447 L56.0003,53.1887 Z M48.0003,51.8347 L34.2973,40.6667 L23.3103,55.5737 L24.9673,56.7677 L34.8503,43.5247 L47.0953,53.3387 L36.0563,53.5457 L30.1833,66.2237 L31.9993,67.0657 L37.3513,55.5227 L46.7263,55.3457 L38.1503,63.9737 L44.0203,72.3407 L45.6573,71.1927 L40.7503,64.1957 L49.1603,55.7347 C50.0253,57.1557 51.5743,58.1147 53.3553,58.1147 C55.1713,58.1147 56.7423,57.1167 57.5973,55.6517 L66.0903,64.1957 L61.1813,71.1927 L62.8183,72.3407 L68.6893,63.9737 L60.1133,55.3457 L69.4863,55.5227 L74.8393,67.0657 L76.6533,66.2237 L70.7753,53.5457 L59.7313,53.3387 L71.9633,43.5247 L81.8163,56.7677 L83.4223,55.5737 L72.1873,40.6667 L58.0003,51.9367 L58.0003,28.8907 L65.0003,24.7617 L65.0003,7.5537 L53.0003,0.6367 L41.0003,7.5537 L41.0003,24.7617 L48.0003,28.7787 L48.0003,51.8347 Z"></path></g></g></svg>