<svg height='200' width='200'  fill="#000000" xmlns="http://www.w3.org/2000/svg" xmlns:xlink="http://www.w3.org/1999/xlink" viewBox="0 0 116 64" version="1.1" x="0px" y="0px"><title>Fill 320</title><desc>Created with Sketch.</desc><g stroke="none" stroke-width="1" fill="none" fill-rule="evenodd"><g fill="#000000"><path d="M87,27.9794 L93.101,27.9794 C93.168,27.9794 93.231,28.0864 93.299,28.0834 C94.648,28.1864 95.718,29.1464 95.718,30.5214 C95.718,31.9644 94.544,32.9794 93.101,32.9794 L87,32.9794 L87,27.9794 Z M93.101,20.9794 C94.544,20.9794 95.718,22.1604 95.718,23.6034 C95.718,24.9794 94.648,25.9974 93.299,26.1004 C93.231,26.0974 93.168,25.9794 93.101,25.9794 L87,25.9794 L87,20.9794 L93.101,20.9794 Z M85,38.9794 L87,38.9794 L87,34.9794 L90,34.9794 L90,38.9794 L92,38.9794 L92,34.9794 L93.101,34.9794 C95.646,34.9794 97.718,33.1304 97.718,30.5834 C97.718,29.1214 97.022,27.9434 95.959,27.0964 C97.022,26.2494 97.718,25.0094 97.718,23.5474 C97.718,21.0014 95.646,18.9794 93.101,18.9794 L92,18.9794 L92,15.9794 L90,15.9794 L90,18.9794 L87,18.9794 L87,15.9794 L85,15.9794 L85,18.9794 L81,18.9794 L81,20.9794 L85,20.9794 L85,32.9794 L81,32.9794 L81,34.9794 L85,34.9794 L85,38.9794 Z"></path><path d="M89.8213,12.2303 C98.1013,12.2303 104.8383,18.9673 104.8383,27.2483 C104.8383,35.5283 98.1013,42.2643 89.8213,42.2643 C81.5413,42.2643 74.8033,35.5283 74.8033,27.2483 C74.8033,18.9673 81.5413,12.2303 89.8213,12.2303 M89.8213,44.2643 C99.2043,44.2643 106.8383,36.6303 106.8383,27.2483 C106.8383,17.8643 99.2043,10.2303 89.8213,10.2303 C80.4373,10.2303 72.8033,17.8643 72.8033,27.2483 C72.8033,36.6303 80.4373,44.2643 89.8213,44.2643"></path><path d="M58.6642,29.5618 C55.5172,25.6238 50.6682,25.5578 48.5212,25.7578 C48.3542,25.2368 48.1132,24.7538 47.7942,24.3238 C49.0812,22.7248 52.5372,19.2728 57.3442,20.7128 C58.3062,22.6918 58.8612,24.9038 58.8612,27.2478 C58.8612,28.0368 58.7822,28.8058 58.6642,29.5618 M52.8012,39.2728 C53.1942,34.3298 49.9262,30.8158 48.2742,29.3748 C48.5182,28.8698 48.6682,28.3188 48.7272,27.7368 C50.6992,27.5438 55.5632,27.6038 58.0022,32.2058 C57.0032,35.0518 55.1742,37.5008 52.8012,39.2728 M41.7262,42.0978 C45.4052,38.9708 45.6052,34.2128 45.4422,31.8898 C46.0452,31.6818 46.5912,31.3638 47.0632,30.9538 C48.6392,32.3168 51.8022,35.7828 50.5212,40.6788 C48.5072,41.6838 46.2452,42.2648 43.8452,42.2648 C43.1242,42.2648 42.4202,42.1958 41.7262,42.0978 M31.7612,36.1258 C32.1532,36.1738 32.5392,36.2058 32.9132,36.2058 C37.1782,36.2058 40.2282,33.2658 41.6072,31.6158 C42.1732,31.9078 42.7982,32.0878 43.4652,32.1398 C43.6152,34.3668 43.3582,39.0808 39.1062,41.4868 C36.1352,40.4948 33.5832,38.5988 31.7612,36.1258 M29.0642,24.6828 C31.6612,28.2028 35.5852,28.8538 38.1062,28.8538 C38.5102,28.8538 38.8722,28.8358 39.1922,28.8118 C39.3862,29.3868 39.6802,29.9088 40.0582,30.3668 C38.6572,32.0568 35.1532,35.3798 30.3282,33.7468 C29.3772,31.7768 28.8282,29.5778 28.8282,27.2478 C28.8282,26.3718 28.9192,25.5178 29.0642,24.6828 M35.1962,14.9918 C34.6742,19.8818 37.7532,23.4148 39.4892,24.9868 C39.1952,25.5488 39.0122,26.1708 38.9562,26.8338 C36.7752,26.9928 32.0552,26.7308 29.7882,22.0118 C30.8532,19.1628 32.7522,16.7228 35.1962,14.9918 M46.2522,12.4418 C42.6402,15.5048 42.3722,20.1478 42.5172,22.5208 C41.8602,22.7058 41.2632,23.0208 40.7482,23.4418 C39.1102,21.9518 36.1412,18.4418 37.5082,13.6518 C39.4362,12.7498 41.5782,12.2308 43.8452,12.2308 C44.6662,12.2308 45.4662,12.3148 46.2522,12.4418 M43.8452,30.1788 C42.2282,30.1788 40.9142,28.8638 40.9142,27.2478 C40.9142,25.6318 42.2282,24.3168 43.8452,24.3168 C45.4612,24.3168 46.7762,25.6318 46.7762,27.2478 C46.7762,28.8638 45.4612,30.1788 43.8452,30.1788 M55.9422,18.3878 C51.1632,17.9378 47.7472,21.2538 46.3042,22.9988 C45.7572,22.6808 45.1482,22.4688 44.4942,22.3818 C44.3332,20.1558 44.5772,15.5178 48.8082,13.0908 C51.6902,14.1048 54.1662,15.9698 55.9422,18.3878 M43.8452,10.2308 C34.4622,10.2308 26.8282,17.8638 26.8282,27.2478 C26.8282,36.6308 34.4622,44.2648 43.8452,44.2648 C53.2272,44.2648 60.8612,36.6308 60.8612,27.2478 C60.8612,17.8638 53.2272,10.2308 43.8452,10.2308"></path><polygon points="86 60.9794 82 60.9794 82 56.9794 80 56.9794 80 60.9794 76 60.9794 76 56.9794 74 56.9794 74 60.9794 71 60.9794 71 56.9794 69 56.9794 69 60.9794 66 60.9794 66 56.9794 64 56.9794 64 60.9794 60 60.9794 60 56.9794 52 56.9794 52 61.9794 48 61.9794 48 56.9794 46 56.9794 46 61.9794 43 61.9794 43 56.9794 41 56.9794 41 61.9794 38 61.9794 38 56.9794 36 56.9794 36 61.9794 33 61.9794 33 56.9794 26 56.9794 26 61.9794 19 61.9794 19 48.9794 17 48.9794 17 63.9794 28 63.9794 28 58.9794 31 58.9794 31 63.9794 54 63.9794 54 58.9794 58 58.9794 58 62.9794 88 62.9794 88 56.9794 86 56.9794"></polygon><path d="M3,32.979 L8,32.979 L8,26.979 L3,26.979 L3,32.979 Z M3,53.979 L8,53.979 L8,40.979 L3,40.979 L3,53.979 Z M0,7.979 L8,7.979 L8,24.979 L1,24.979 L1,34.979 L8,34.979 L8,38.979 L1,38.979 L1,55.979 L8,55.979 L8,62.979 L10,62.979 L10,55.851 L10,39.033 L10,34.594 L10,25.183 L10,5.979 L0,5.979 L0,7.979 Z"></path><path d="M112.1523,47.7069 L107.2203,51.9789 L103.6113,51.9789 L106.0663,49.5429 L104.7163,48.1619 L100.6483,51.9789 L95.4693,51.9789 L97.9233,49.5429 L96.5743,48.1619 L92.5053,51.9789 L76.4513,51.9789 L70.7833,45.9789 L66.9803,45.9789 L68.8163,40.9789 L70.9173,40.9789 L69.7583,44.1159 L71.6393,44.8249 L73.0463,40.9789 L75.0003,40.9789 L75.0003,38.9789 L71.9753,38.9789 L71.6433,38.9789 L67.4143,38.9789 L64.8513,45.9789 L61.8553,45.9789 L61.9973,45.5719 L63.5623,41.3929 L63.5443,41.3789 L68.7573,27.3149 L65.4923,18.6219 L63.6193,19.3239 L66.6233,27.3159 L60.1833,44.8769 L57.5863,51.9789 L32.5893,51.9789 L26.8423,39.6789 L15.0003,36.4189 L15.0003,18.4479 L26.8423,15.2339 L32.5893,2.9789 L57.5863,2.9789 L61.6893,14.0459 L63.5623,13.4359 L61.8533,8.9789 L64.8513,8.9789 L67.4143,15.9789 L71.6433,15.9789 L71.9753,15.9789 L75.0003,15.9789 L75.0003,13.9789 L73.0463,13.9789 L71.6393,10.1149 L69.7593,10.7939 L70.9173,13.9789 L68.8163,13.9789 L66.9803,8.9789 L70.7833,8.9789 L76.4513,2.9789 L92.5053,2.9789 L96.5743,6.8469 L97.9233,5.2969 L95.4693,2.9789 L100.6483,2.9789 L104.7163,6.8469 L106.0663,5.2969 L103.6113,2.9789 L107.2203,2.9789 L112.1523,7.2059 L109.6363,10.5249 L77.8693,4.5879 L77.5003,6.5709 L109.2653,12.7689 L113.3863,26.9789 L110.0003,26.9789 L110.0003,28.9789 L113.2783,28.9789 L109.2643,42.5219 L77.5003,48.3859 L77.8693,50.2969 L109.6353,44.3929 L112.1523,47.7069 Z M20.8133,42.6449 L15.0003,39.4009 L15.0003,38.4869 L25.4193,41.1809 L30.0103,50.9839 L23.8263,49.0959 L20.8133,42.6449 Z M20.8133,12.2229 L23.8743,5.7719 L30.0593,3.8829 L25.3943,13.6859 L15.0003,16.3799 L15.0003,15.4659 L20.8133,12.2229 Z M115.7093,27.3569 L111.1553,11.9009 L114.9203,6.9009 L107.9413,0.9789 L101.4253,0.9789 L101.4073,0.9629 L101.3923,0.9789 L93.2823,0.9789 L93.2643,0.9629 L93.2493,0.9789 L75.6233,0.9789 L69.9553,6.9789 L61.4063,6.9789 L58.9343,0.9789 L31.9473,0.9789 L22.5283,3.9779 L19.2623,10.7359 L13.0003,14.3109 L13.0003,40.5559 L19.2623,44.0589 L22.4313,50.7439 L31.6043,53.5529 L58.9103,53.5969 L59.1683,53.0319 L59.2103,53.0449 L59.4503,52.4329 L61.4063,47.9789 L69.9553,47.9789 L75.6233,53.9789 L93.2493,53.9789 L93.2643,53.9959 L93.2823,53.9789 L101.3923,53.9789 L101.4073,53.9959 L101.4253,53.9789 L107.9413,53.9789 L114.9203,48.0119 L111.1543,43.0609 L115.7093,27.3569 Z"></path></g></g></svg>