<svg height='200' width='200'  fill="#000000" xmlns="http://www.w3.org/2000/svg" xmlns:xlink="http://www.w3.org/1999/xlink" viewBox="0 0 86 113" version="1.1" x="0px" y="0px"><title>Fill 251</title><desc>Created with Sketch.</desc><g stroke="none" stroke-width="1" fill="none" fill-rule="evenodd"><g fill="#000000"><polygon points="54 62.9794 56 62.9794 56 53.9794 64 53.9794 64 51.9794 54 51.9794"></polygon><polygon points="38 53.979 47 53.979 47 51.979 38 51.979"></polygon><path d="M75.4602,73.3795 C84.8492,66.0935 86.8262,52.5425 79.7892,42.8855 L65.2542,22.6975 C61.8332,18.0035 56.3512,14.9795 50.5532,14.9795 L50.3242,14.9795 C44.7252,15.9795 39.3752,18.0035 36.0112,22.4805 L20.8772,42.7355 C17.1842,47.6475 15.7202,53.7505 16.7532,59.8085 C17.6702,65.1945 20.4542,69.9365 24.6512,73.3145 L13.5672,81.7305 L14.7762,83.3325 L26.3262,74.5815 L30.4292,77.3205 L31.5382,75.6575 L27.3922,72.8915 C22.7422,69.7885 19.6642,65.0445 18.7232,59.5325 C17.7842,54.0225 19.1172,48.5265 22.4762,44.0575 L37.6102,23.6815 C40.6032,19.6985 45.3662,17.9795 50.3492,16.9795 L50.5532,16.9795 C55.7142,16.9795 60.5932,19.6975 63.6372,23.8755 L78.1722,43.9425 C84.6732,52.8625 82.7332,65.5085 73.8482,72.0565 L73.8212,72.1075 L73.7352,72.0575 L73.5142,72.3565 L68.2592,76.2345 L69.4462,77.8455 L73.8042,74.6335 L84.4322,82.6895 L85.6412,81.0965 L75.4602,73.3795 Z"></path><path d="M11.5005,36.7909 C6.2235,36.7909 2.0005,32.4979 2.0005,27.2209 L2.0005,17.9789 L21.0005,17.9789 L21.0005,27.2209 C21.0005,32.4979 16.7775,36.7909 11.5005,36.7909 M23.0005,27.2209 L23.0005,15.9789 L20.0005,15.9789 L20.0005,9.4019 C20.0005,4.7329 16.6685,0.9359 12.0005,0.9359 C7.3315,0.9359 4.0005,4.7329 4.0005,9.4019 L4.0005,11.9789 L6.0005,11.9789 L6.0005,9.4019 C6.0005,5.8369 8.4345,2.9359 12.0005,2.9359 C15.5655,2.9359 18.0005,5.8369 18.0005,9.4019 L18.0005,15.9789 L0.0005,15.9789 L0.0005,27.2209 C0.0005,33.6009 5.1195,38.7909 11.5005,38.7909 C17.8805,38.7909 23.0005,33.6009 23.0005,27.2209"></path><path d="M12.5596,26.2997 L11.9996,26.6007 L11.9996,29.9797 L10.9996,29.9797 L10.9996,26.6007 L10.5696,26.2997 C10.1216,25.9487 9.8426,25.4327 9.8426,24.8827 C9.8426,23.8847 10.6426,23.0717 11.6406,23.0717 C12.6386,23.0717 13.3566,23.8847 13.3566,24.8827 C13.3566,25.4337 13.0056,25.9497 12.5596,26.2997 M11.6286,21.0717 C9.5276,21.0717 7.8666,22.7807 7.8666,24.8827 C7.8666,25.8807 7.9996,26.8217 8.9996,27.5307 L8.9996,31.9797 L13.9996,31.9797 L13.9996,27.5307 C14.9996,26.8217 15.2616,25.8807 15.2616,24.8827 C15.2616,22.7807 13.7296,21.0717 11.6286,21.0717"></path><polygon points="76.9482 46.1229 60.1632 28.8239 58.7272 30.2169 75.5122 47.5159"></polygon><polygon points="38.8076 31.5956 30.3026 40.3246 31.7346 41.7206 40.2396 32.9916"></polygon><path d="M41.7344,45.2919 C39.1004,45.2919 36.7114,46.6739 35.7894,48.7299 L37.6134,49.5489 C38.2184,48.1989 39.8754,47.2919 41.7344,47.2919 C43.5224,47.2919 45.1114,48.1169 45.7804,49.3939 L47.5514,48.4659 C46.5414,46.5379 44.2574,45.2919 41.7344,45.2919"></path><path d="M60.0234,45.2919 C57.3904,45.2919 55.0014,46.6739 54.0774,48.7299 L55.9014,49.5499 C56.5074,48.1989 58.1644,47.2919 60.0234,47.2919 C61.7844,47.2919 63.4104,48.1369 64.0694,49.3939 L65.8404,48.4659 C64.8304,46.5379 62.5464,45.2919 60.0234,45.2919"></path><path d="M65,70.5917 C65,72.8917 63.655,74.9667 61.604,76.0077 L57.392,78.1267 L57.447,78.2707 L52.903,76.3867 L53.849,69.5387 L54.031,69.9797 L60.227,69.9797 L62.298,65.8817 L60.53,65.0397 L59.023,67.9797 L55.041,67.9797 L54.229,66.6897 L54.391,65.3957 L48.615,64.0947 L47.994,66.4567 L46.992,67.9797 L43.01,67.9797 L41.503,64.9457 L39.735,65.9747 L41.807,69.9797 L47.045,69.9797 L44.67,78.1987 L40.522,76.1017 C38.472,75.0607 37,72.8917 37,70.5917 L37,66.9447 L37.499,66.3617 C35.216,65.4227 34,63.2307 34,60.7767 L34,47.9647 L41.051,41.0607 C43.748,38.4667 47.23,36.9797 50.972,36.9797 L51.196,36.9797 L51.2,36.9797 C55.075,36.9797 58.656,38.6337 61.349,41.4187 L68,48.5427 L68,60.7767 C68,63.4047 66.426,65.7797 63.904,66.5507 L64.652,68.4627 C64.716,68.4437 65,68.4107 65,68.3897 L65,70.5917 Z M60.146,88.8737 L57.703,85.2617 L55.156,93.6007 L52.483,93.7497 L47.444,100.4707 L38.897,96.6007 L46.402,79.2037 L49.82,67.1397 L50.17,66.6647 L49.992,66.5337 L50.029,66.4017 L51.982,66.8257 L52.139,67.0387 L50.707,77.6427 L62.037,82.3497 L60.146,88.8737 Z M70,60.7767 L70,50.6107 L77.481,58.1487 C77.103,59.7867 75.475,65.4797 69.128,69.7637 L70.294,71.4217 C78.52,65.8687 79.674,58.2847 79.718,57.9657 L79.796,57.4837 L62.969,40.0277 C59.9,36.8547 55.615,34.9797 51.2,34.9797 L51.196,34.9797 L50.972,34.9797 C46.711,34.9797 42.674,36.6647 39.604,39.6197 L21.217,57.3497 L21.2,57.7647 C21.187,58.1057 20.977,66.2047 31.245,73.3937 L32.392,71.7577 C24.178,66.0077 23.355,59.8227 23.267,58.2367 L32,49.8897 L32,60.7767 C32,63.4707 33,65.9117 35,67.3907 L35,70.5917 C35,73.6487 36.891,76.4067 39.618,77.7907 L43.834,79.8797 L37.026,95.7767 L34.516,94.6287 L28.921,103.6617 L30.627,104.7167 L35.311,97.1737 L36.282,97.6127 L36.262,97.6607 L47.471,102.6787 L48.728,103.2477 L44.888,111.1847 L46.688,112.0557 L51.422,102.2717 L49.31,101.3147 L53.524,95.6957 L56.662,95.5187 L58.393,89.8517 L60.879,93.5287 L64.455,81.1897 L59.663,79.1987 L62.509,77.7907 C65.236,76.4067 67,73.6487 67,70.5917 L67,67.3957 C69,65.9187 70,63.4507 70,60.7767 L70,60.7767 Z"></path><polygon points="35.5176 79.1083 34.6156 80.8933 39.0726 83.1463 39.9746 81.3613"></polygon><polygon points="29.0352 78.7333 19.6242 85.6913 17.3212 93.5673 19.2412 94.1283 21.3542 86.8983 30.2242 80.3403"></polygon><polygon points="69.9707 78.7333 68.7817 80.3403 77.6517 86.8983 79.7637 94.1283 81.6837 93.5673 79.3817 85.6913"></polygon></g></g></svg>